<svg width="130" height="17" viewBox="0 0 130 17" fill="none" xmlns="http://www.w3.org/2000/svg">
<g clip-path="url(#clip0_1132_16405)">
<mask id="mask0_1132_16405" style="mask-type:luminance" maskUnits="userSpaceOnUse" x="0" y="0" width="130" height="17">
<path d="M129.702 0.408203H0V16.4082H129.702V0.408203Z" fill="white"/>
</mask>
<g mask="url(#mask0_1132_16405)">
<path d="M57.1784 9.36689L55.9448 13.8997C55.5825 13.9403 55.2182 13.9611 54.8536 13.9621C52.4336 13.9621 52.7024 13.2333 53.7232 9.28369C54.7856 5.17809 55.4032 4.42929 56.9144 4.42929C58.368 4.42929 58.38 5.40929 58.0096 6.64849H61.7C62.2984 4.33489 61.8984 2.28369 57.5832 2.28369C52.7792 2.28369 51.4744 3.29649 49.9256 9.28369C48.4856 14.8589 48.9576 16.3381 54.1512 16.3381C55.8273 16.3694 57.5018 16.2173 59.1448 15.8845L60.8824 9.36689H57.1784Z" fill="#9CA3AF"/>
<path d="M65.98 13.8372C65.5 13.8372 65.3304 13.6916 65.42 13.302L66.2568 10.022H71.1936L71.7536 7.87079H66.816L67.376 5.68519C67.436 5.37637 67.6054 5.09954 67.853 4.90544C68.1005 4.71135 68.4098 4.61298 68.724 4.62839H72.6776L73.2376 2.47559H67.4936C65.1112 2.47559 64.3944 2.90119 63.468 6.48599L61.7624 13.046C61.2384 15.246 61.892 16.2036 63.6896 16.2036H68.6496C69.0672 16.2221 69.4793 16.1038 69.8235 15.8667C70.1678 15.6296 70.4252 15.2867 70.5568 14.89L70.9632 13.8412L65.98 13.8372Z" fill="#9CA3AF"/>
<path d="M122.447 13.8372C121.967 13.8372 121.798 13.6916 121.887 13.302L122.725 10.022H127.662L128.222 7.87079H123.283L123.843 5.68519C123.903 5.37629 124.072 5.09937 124.32 4.90524C124.568 4.71111 124.877 4.61281 125.191 4.62839H129.144L129.704 2.47559H123.96C121.577 2.47559 120.861 2.90119 119.934 6.48599L118.23 13.046C117.706 15.246 118.359 16.2036 120.156 16.2036H125.116C125.533 16.2225 125.946 16.1044 126.29 15.8672C126.634 15.63 126.891 15.2868 127.022 14.89L127.429 13.8412L122.447 13.8372Z" fill="#9CA3AF"/>
<path d="M41.1425 13.8548H40.1313L42.5153 4.63079C42.8217 4.63079 42.9369 4.61719 43.6969 4.61719C45.8393 4.61719 45.8361 5.32599 44.8169 9.27799C43.7841 13.278 43.1833 13.8548 41.1457 13.8548M44.3089 2.47559H39.3681L35.9249 15.7884C35.9075 15.8355 35.902 15.8861 35.9088 15.9358C35.9157 15.9855 35.9346 16.0327 35.964 16.0734C35.9935 16.114 36.0324 16.1468 36.0775 16.1688C36.1226 16.1908 36.1724 16.2014 36.2225 16.1996H40.6225C46.1513 16.1996 47.0825 15.1428 48.5985 9.27879C49.9161 4.18439 49.1041 2.47879 44.3081 2.47879" fill="#9CA3AF"/>
<path d="M113.438 2.44922C110.591 2.44922 109.268 2.51082 108.49 2.47562L105.05 15.7884C105.032 15.8354 105.026 15.886 105.033 15.9358C105.039 15.9855 105.058 16.0329 105.087 16.0737C105.117 16.1144 105.156 16.1473 105.201 16.1694C105.246 16.1915 105.296 16.2022 105.346 16.2004H108.648L111.639 4.63162C111.944 4.63162 112.408 4.60522 112.877 4.60522C114.477 4.60522 114.692 5.17562 114.269 6.81162L111.949 15.7892C111.931 15.8362 111.925 15.8868 111.932 15.9366C111.939 15.9863 111.957 16.0337 111.987 16.0744C112.016 16.1152 112.055 16.1481 112.1 16.1702C112.145 16.1923 112.195 16.203 112.245 16.2012H115.547L117.971 6.81082C118.811 3.55962 117.382 2.44922 113.438 2.44922Z" fill="#9CA3AF"/>
<path d="M84.8393 2.47559L84.2681 4.70519H87.9377C87.9737 4.70519 87.9737 4.75159 87.9377 4.77639C87.3809 5.20842 86.9881 5.8174 86.8241 6.50279L84.4209 15.7884C84.4035 15.8355 84.398 15.8861 84.4048 15.9358C84.4116 15.9855 84.4306 16.0327 84.46 16.0734C84.4894 16.114 84.5284 16.1468 84.5734 16.1688C84.6185 16.1908 84.6683 16.2014 84.7185 16.1996H88.2625L91.2409 4.70599H93.0569C93.4881 4.74452 93.9195 4.63501 94.2802 4.3955C94.6408 4.156 94.9091 3.80078 95.0409 3.38839L95.3881 2.47559H84.8393Z" fill="#9CA3AF"/>
<path d="M33.4304 16.2006L36.8704 2.88858C36.8877 2.84212 36.8934 2.79215 36.887 2.743C36.8807 2.69385 36.8625 2.64697 36.834 2.60642C36.8055 2.56588 36.7675 2.53287 36.7234 2.51025C36.6793 2.48763 36.6304 2.47607 36.5808 2.47658H33.0872L29.6472 15.7886C29.6297 15.8356 29.6241 15.8862 29.6308 15.936C29.6375 15.9857 29.6564 16.0331 29.6857 16.0738C29.715 16.1145 29.7539 16.1474 29.799 16.1695C29.8441 16.1916 29.8939 16.2023 29.944 16.2006H33.4304Z" fill="#9CA3AF"/>
<path d="M98.0105 14.085C96.4265 14.085 96.1913 13.5074 97.2969 9.22902C98.2185 5.66982 99.0961 4.42902 100.509 4.42902C102.093 4.42902 102.269 5.28022 101.246 9.22902C100.234 13.141 99.2353 14.085 98.0105 14.085ZM101.062 2.28662C96.9057 2.28662 95.1025 3.02582 93.4697 9.33942C92.0561 14.8082 93.1897 16.3906 97.4145 16.3906C101.714 16.3906 103.414 15.5066 105.006 9.33942C106.161 4.87542 105.926 2.28662 101.062 2.28662Z" fill="#9CA3AF"/>
<path d="M2.16009 9.44455L4.30729 1.90055C4.44019 1.48596 4.6966 1.12189 5.04218 0.857089C5.38776 0.592292 5.80601 0.439419 6.24089 0.418945H12.8153C12.8385 0.419752 12.8609 0.427807 12.8793 0.44198C12.8977 0.456153 12.9112 0.475733 12.9179 0.49797C12.9246 0.520208 12.9242 0.543987 12.9167 0.565971C12.9092 0.587955 12.895 0.607039 12.8761 0.620545C9.0946 3.25664 5.56923 6.2423 2.34649 9.53815C2.33058 9.55664 2.30887 9.5692 2.28491 9.57379C2.26094 9.57837 2.23613 9.57471 2.21452 9.56339C2.1929 9.55207 2.17576 9.53377 2.16587 9.51146C2.15599 9.48916 2.15395 9.46416 2.16009 9.44055" fill="#9CA3AF"/>
<path d="M7.35362 13.9668L9.48162 6.52684C9.48983 6.50339 9.4899 6.47787 9.48181 6.45438C9.47372 6.43089 9.45795 6.41082 9.43704 6.39741C9.41614 6.38399 9.39132 6.37802 9.3666 6.38046C9.34188 6.3829 9.3187 6.3936 9.30082 6.41084C5.9472 9.34435 2.84639 12.5549 0.0312158 16.0084C0.0154763 16.0236 0.00455859 16.0431 -0.00017252 16.0644C-0.00490363 16.0858 -0.00323819 16.108 0.00461558 16.1284C0.0124693 16.1488 0.026163 16.1665 0.0439846 16.1791C0.0618062 16.1918 0.082965 16.1989 0.104816 16.1996H9.31362C13.1968 16.1996 15.3216 14.9996 16.092 12.1196C16.7208 9.77884 15.4928 8.18204 13.532 7.77004C13.4968 7.76284 13.4656 7.69724 13.532 7.68524C15.1888 7.40204 16.86 6.73484 17.456 4.31804C18.1032 1.70444 16.1032 0.270836 13.8032 0.418036L10.2832 12.738C10.1741 13.0778 9.96483 13.3768 9.68289 13.5956C9.40095 13.8144 9.05948 13.943 8.70322 13.9644L7.35362 13.9668Z" fill="#9CA3AF"/>
<path d="M27.364 10.6962C27.277 10.3529 27.124 10.0299 26.9136 9.74501C26.888 9.71301 26.8824 9.67141 26.928 9.65701C27.6791 9.46081 28.3612 9.06066 28.899 8.50084C29.4368 7.94103 29.8093 7.24336 29.9752 6.48501C30.5528 4.25301 29.1448 2.47461 25.5896 2.47461H20.3096L16.8616 15.7882C16.8441 15.8353 16.8384 15.8859 16.8451 15.9356C16.8519 15.9854 16.8707 16.0327 16.9 16.0734C16.9294 16.1141 16.9683 16.147 17.0134 16.1691C17.0584 16.1912 17.1082 16.2019 17.1584 16.2002H20.46L23.452 4.63141C23.772 4.63141 24.0768 4.61781 24.8376 4.61781C26.1104 4.61781 26.5808 5.40341 26.3064 6.46341C26.1746 7.08691 25.8304 7.64529 25.3325 8.04307C24.8346 8.44086 24.214 8.65335 23.5768 8.64421H23.0904L24.4648 15.2842C24.4834 15.4263 24.5303 15.5631 24.6029 15.6866C24.6755 15.8101 24.7721 15.9178 24.8872 16.0032C25.0022 16.0886 25.1332 16.1499 25.2724 16.1837C25.4117 16.2174 25.5563 16.2227 25.6976 16.1994H28.6456L27.364 10.6962Z" fill="#9CA3AF"/>
<path d="M72.2985 11.5507C70.9001 14.8931 72.7233 16.4083 76.4361 16.4083C79.8249 16.4083 81.7049 15.6027 82.5121 12.4883C82.6633 11.992 82.6913 11.4663 82.5938 10.9567C82.4962 10.4471 82.2759 9.9689 81.9521 9.56352C80.6849 8.18512 78.2481 7.92752 77.3921 7.12912C77.21 6.93769 77.0849 6.69925 77.0309 6.44061C76.977 6.18198 76.9962 5.91342 77.0865 5.66512C77.164 5.25065 77.392 4.87946 77.7266 4.62294C78.0613 4.36642 78.4789 4.24268 78.8993 4.27552C80.4305 4.27552 80.4697 5.21792 80.0937 6.33632H83.3801C84.1529 4.00112 83.1401 2.16992 79.2689 2.16992C76.0121 2.16992 74.2537 3.44992 73.6225 5.89632C73.4337 6.72356 73.5366 7.59063 73.9137 8.35072C74.8081 9.88272 77.1777 10.0731 78.4889 10.9851C78.725 11.15 78.8972 11.391 78.9766 11.6678C79.056 11.9445 79.0377 12.2402 78.9249 12.5051C78.8752 12.9929 78.6373 13.4422 78.2618 13.7575C77.8863 14.0728 77.4027 14.2293 76.9137 14.1939C75.8145 14.1939 75.1537 13.5539 75.7841 11.5539L72.2985 11.5507Z" fill="#9CA3AF"/>
</g>
</g>
<defs>
<clipPath id="clip0_1132_16405">
<rect width="129.702" height="16" fill="white" transform="translate(0 0.408203)"/>
</clipPath>
</defs>
</svg>
