<svg width="159" height="11" viewBox="0 0 159 11" fill="none" xmlns="http://www.w3.org/2000/svg">
<g clip-path="url(#clip0_1132_16368)">
<mask id="mask0_1132_16368" style="mask-type:luminance" maskUnits="userSpaceOnUse" x="0" y="0" width="159" height="11">
<path d="M158.258 0.578125H0V10.5781H158.258V0.578125Z" fill="white"/>
</mask>
<g mask="url(#mask0_1132_16368)">
<path d="M158.258 1.55485C158.258 1.72225 158.209 1.88588 158.116 2.02507C158.023 2.16425 157.89 2.27273 157.736 2.33679C157.581 2.40085 157.411 2.41761 157.247 2.38495C157.083 2.35229 156.932 2.27168 156.813 2.15332C156.695 2.03495 156.614 1.88415 156.582 1.71997C156.549 1.55579 156.566 1.38562 156.63 1.23097C156.694 1.07632 156.802 0.944132 156.942 0.851133C157.081 0.758134 157.244 0.708496 157.412 0.708496C157.636 0.708496 157.852 0.797666 158.01 0.956389C158.169 1.11511 158.258 1.33039 158.258 1.55485ZM158.12 1.55485C158.123 1.46014 158.107 1.36586 158.072 1.27757C158.038 1.18929 157.986 1.1088 157.92 1.04086C157.854 0.972928 157.775 0.918926 157.688 0.88205C157.601 0.845175 157.507 0.826176 157.412 0.826176C157.317 0.826176 157.224 0.845175 157.136 0.88205C157.049 0.918926 156.97 0.972928 156.904 1.04086C156.838 1.1088 156.786 1.18929 156.752 1.27757C156.717 1.36586 156.701 1.46014 156.704 1.55485C156.701 1.64956 156.717 1.74385 156.752 1.83213C156.786 1.92042 156.838 2.00091 156.904 2.06884C156.97 2.13678 157.049 2.19078 157.136 2.22766C157.224 2.26453 157.317 2.28353 157.412 2.28353C157.507 2.28353 157.601 2.26453 157.688 2.22766C157.775 2.19078 157.854 2.13678 157.92 2.06884C157.986 2.00091 158.038 1.92042 158.072 1.83213C158.107 1.74385 158.123 1.64956 158.12 1.55485ZM157.236 2.05703H157.099V1.05268H157.482C157.708 1.05268 157.808 1.15142 157.808 1.33142C157.812 1.39831 157.79 1.46396 157.747 1.51558C157.704 1.56721 157.644 1.60112 157.578 1.61071L157.856 2.05703H157.701L157.428 1.61071H157.235L157.236 2.05703ZM157.393 1.4973C157.525 1.4973 157.675 1.50407 157.675 1.32803C157.675 1.18697 157.562 1.16609 157.457 1.16609H157.238V1.4973H157.393Z" fill="#9CA3AF"/>
<path d="M101.209 0.658203H92.2372C92.215 0.658289 92.1935 0.665533 92.1758 0.678854C92.1581 0.692175 92.1452 0.710859 92.139 0.732118L91.4658 2.83334C91.4608 2.84902 91.4596 2.8657 91.4625 2.88192C91.4653 2.89815 91.4721 2.91344 91.4822 2.92644C91.4919 2.93981 91.5047 2.9507 91.5194 2.95825C91.5341 2.96579 91.5503 2.96978 91.5668 2.96989H96.0531C95.9696 3.23395 93.7138 10.4133 93.7138 10.4133C93.7099 10.4234 93.7082 10.4342 93.7087 10.4449C93.7082 10.4588 93.7106 10.4727 93.7157 10.4856C93.7208 10.4986 93.7285 10.5103 93.7384 10.5202C93.7482 10.53 93.76 10.5377 93.7729 10.5428C93.7859 10.5479 93.7997 10.5503 93.8136 10.5499H97.6273C97.6497 10.5498 97.6714 10.5426 97.6894 10.5293C97.7073 10.516 97.7206 10.4973 97.7272 10.476C97.7272 10.476 100.046 3.11433 100.091 2.97158H104.347C104.37 2.97161 104.392 2.9643 104.41 2.95076C104.428 2.93722 104.441 2.91819 104.447 2.89654L105.096 0.796442C105.099 0.786539 105.101 0.776288 105.101 0.765973C105.101 0.738226 105.09 0.711581 105.07 0.691752C105.051 0.671922 105.025 0.660486 104.997 0.659896L101.209 0.658203Z" fill="#9CA3AF"/>
<path d="M16.3629 0.665043L4.8005 0.675199C3.63478 0.663914 2.12431 1.44256 1.72088 2.72564L0.0383242 7.99394C-0.013745 8.22218 -0.01205 8.45939 0.0432756 8.68687C0.0986011 8.91434 0.206043 9.12584 0.357119 9.30466C0.959162 10.1843 2.24055 10.5776 4.50314 10.5776L12.8274 10.5691C12.8459 10.569 12.8641 10.5636 12.8798 10.5537C12.8954 10.5437 12.908 10.5295 12.9159 10.5127L14.0382 8.36859C14.046 8.35335 14.0498 8.33636 14.0491 8.31925C14.0485 8.30213 14.0435 8.28547 14.0347 8.27082C14.0258 8.25618 14.0133 8.24405 13.9984 8.23558C13.9835 8.22712 13.9667 8.2226 13.9496 8.22245L9.23767 8.23035L4.16404 8.2281C4.24247 7.98322 5.33427 4.53628 5.33427 4.53628C5.33427 4.53628 5.67281 3.46762 5.69087 3.40781C5.8847 3.24906 6.10905 3.13179 6.35004 3.06327C6.59103 2.99475 6.84352 2.97643 7.09187 3.00945H15.2197C15.2376 3.00958 15.2552 3.00475 15.2706 2.99548C15.2859 2.98622 15.2984 2.97289 15.3066 2.95698L16.4532 0.81118C16.461 0.795806 16.4648 0.778664 16.4641 0.761412C16.4634 0.74416 16.4582 0.727379 16.4492 0.712689C16.4401 0.697999 16.4274 0.685897 16.4123 0.677551C16.3972 0.669205 16.3801 0.664897 16.3629 0.665043Z" fill="#9CA3AF"/>
<path d="M30.4576 2.19062C30.4068 2.09527 29.9159 1.25117 28.2988 0.869741C27.7705 0.748105 27.23 0.687897 26.6879 0.690313L26.4498 0.682414H21.4518H19.8962C19.1817 0.644466 18.474 0.838122 17.8784 1.23459C17.2828 1.63105 16.831 2.20916 16.5903 2.88294L14.9805 7.98479C14.9805 7.98987 14.9726 8.02259 14.9721 8.02711C14.931 8.45909 15.0575 8.89032 15.3253 9.23176C15.9589 10.1515 17.2629 10.578 19.4256 10.578H24.3395C26.9954 10.578 28.375 9.99404 28.81 8.68445L30.5467 3.19892C30.6277 2.86209 30.5964 2.50803 30.4576 2.19062ZM25.0161 7.81665C24.9771 7.93796 24.651 8.24095 23.6162 8.24095L19.0069 8.23305C19.0763 8.01695 20.1664 4.60105 20.1664 4.60105L20.54 3.42574C20.5964 3.35013 20.8785 3.0477 21.9178 3.03755L25.7219 3.01498L26.5356 3.02344C26.2534 3.91832 25.0685 7.68349 25.0161 7.81665Z" fill="#9CA3AF"/>
<path d="M60.47 1.97553C59.9058 1.21437 58.542 0.711632 56.9966 0.694141L50.2878 0.673828C49.0357 0.673828 47.4305 0.994316 46.8877 2.52058L46.8736 2.55726C46.7816 2.80552 45.2232 7.76969 45.1566 7.98072L44.3729 10.4487C44.368 10.4636 44.3668 10.4794 44.3693 10.4948C44.3719 10.5102 44.3781 10.5248 44.3875 10.5373C44.3968 10.5498 44.4089 10.5599 44.4228 10.5669C44.4367 10.5738 44.4521 10.5774 44.4677 10.5773H48.3101C48.3315 10.5778 48.3524 10.5713 48.3698 10.5589C48.3871 10.5465 48.4001 10.5288 48.4066 10.5085C48.4066 10.5085 49.5864 6.78961 49.6271 6.65871L57.6472 6.66491C59.0188 6.66491 59.6891 6.34612 59.9605 5.56465C59.9633 5.55675 60.0361 5.3288 60.0361 5.3288L60.6986 3.2129C60.7624 3.0034 60.775 2.7816 60.7351 2.56624C60.6953 2.35087 60.6047 2.14826 60.47 1.97553ZM56.6451 3.25183L56.4555 3.85839C56.3246 4.26972 56.0188 4.28608 55.4455 4.28044H55.3067C55.3067 4.28044 51.1686 4.27593 50.386 4.27593C50.4497 4.08521 50.6286 3.5537 50.6286 3.5537L50.6794 3.39459C50.7301 3.23434 50.8537 3.02952 51.3632 3.02952C51.4072 3.02952 55.6718 3.02445 56.1085 3.0346C56.5198 3.05322 56.6163 3.13617 56.6422 3.17228C56.649 3.18074 56.662 3.20162 56.6422 3.2524" fill="#9CA3AF"/>
<path d="M61.7655 2.72493C61.7577 2.73788 61.7508 2.75126 61.7446 2.76499C61.7294 2.81126 60.2702 7.45382 60.211 7.61745C60.106 7.86699 60.0666 8.13929 60.0968 8.40836C60.1269 8.67743 60.2255 8.93429 60.3831 9.15443C61.0212 10.073 62.6005 10.5678 63.7634 10.5678L72.8324 10.5757C72.8506 10.5762 72.8686 10.5715 72.8842 10.5621C72.8998 10.5527 72.9124 10.539 72.9205 10.5227L73.9925 8.42713C73.9999 8.41203 74.0036 8.39535 74.0031 8.37854C74.0026 8.36172 73.998 8.34528 73.9897 8.33064C73.9808 8.3161 73.9684 8.30406 73.9536 8.29566C73.9388 8.28727 73.9221 8.2828 73.905 8.28268L69.2783 8.30243L64.1155 8.28607C64.181 8.08576 64.6166 6.7457 64.6538 6.63285L71.7717 6.64921C71.7925 6.64894 71.8127 6.64223 71.8296 6.63001C71.8465 6.61779 71.8591 6.60065 71.8659 6.58094L72.5368 4.46222C72.5401 4.4528 72.5416 4.44286 72.5413 4.43288C72.5404 4.41264 72.5337 4.39308 72.5221 4.37646C72.513 4.36403 72.5011 4.35392 72.4874 4.34695C72.4737 4.33999 72.4585 4.33637 72.4431 4.3364C72.4431 4.3364 65.6982 4.31891 65.4279 4.31891C65.4906 4.14512 65.6232 3.7857 65.6232 3.7857L65.6576 3.68245C65.8094 3.20454 66.5367 3.19099 66.7573 3.1972L75.0894 3.21469C75.107 3.21431 75.1242 3.20931 75.1392 3.2002C75.1543 3.19109 75.1667 3.17819 75.1752 3.16278L76.4571 0.843762C76.4652 0.828753 76.4694 0.811987 76.4694 0.794955C76.4694 0.777924 76.4652 0.761157 76.4571 0.746149C76.4485 0.731319 76.4361 0.718992 76.4213 0.710384C76.4064 0.701777 76.3896 0.697184 76.3725 0.69706L65.7292 0.681826C64.4642 0.618067 62.6716 0.760255 61.766 2.72493" fill="#9CA3AF"/>
<path d="M106.213 0.65828C106.19 0.65812 106.168 0.665222 106.15 0.678535C106.132 0.691847 106.119 0.710662 106.112 0.732195L103.05 10.4213C103.045 10.4369 103.044 10.4535 103.046 10.4697C103.049 10.4858 103.055 10.5011 103.065 10.5144C103.075 10.5278 103.088 10.5387 103.102 10.5462C103.117 10.5538 103.134 10.5577 103.15 10.5578L106.967 10.5505C106.989 10.5502 107.011 10.5429 107.029 10.5297C107.047 10.5164 107.061 10.4979 107.068 10.4766L110.119 0.794826C110.124 0.779126 110.125 0.762441 110.123 0.746151C110.12 0.729862 110.114 0.71444 110.104 0.701162C110.094 0.687645 110.081 0.676657 110.066 0.669103C110.051 0.66155 110.035 0.657647 110.018 0.657716L106.213 0.65828Z" fill="#9CA3AF"/>
<path d="M45.5831 2.19063C45.5335 2.09528 45.0415 1.25118 43.4255 0.869751C42.8965 0.748018 42.3552 0.687809 41.8123 0.690324L41.5754 0.682424H36.5785H35.0206C34.3057 0.644423 33.5976 0.838156 33.0015 1.23482C32.4055 1.63149 31.9534 2.2099 31.7125 2.88408L30.1033 7.9848C30.1033 7.98988 30.0965 8.0226 30.0954 8.02712C30.0539 8.45914 30.1804 8.89052 30.4486 9.23177C31.0856 10.1515 32.3896 10.578 34.554 10.578H39.4662C42.1221 10.578 43.5022 9.99405 43.939 8.68446L45.6729 3.19893C45.753 2.86199 45.7215 2.50814 45.5831 2.19063ZM40.1411 7.81666C40.101 7.93684 39.7743 8.24096 38.7418 8.24096L34.1325 8.23307C34.2013 8.01696 35.2864 4.6163 35.2864 4.6163L35.6621 3.42575C35.7186 3.35014 35.9967 3.04771 37.0406 3.03756L40.8447 3.01499L41.6594 3.02345C41.3598 3.98266 40.1924 7.68745 40.1399 7.81666" fill="#9CA3AF"/>
<path d="M90.4593 1.94075C89.8951 1.18016 88.5302 0.67742 86.9859 0.661621L77.5067 0.672906C77.4855 0.672547 77.4647 0.679059 77.4475 0.691466C77.4303 0.703874 77.4176 0.721512 77.4113 0.741743L75.1453 7.94651C75.1453 7.94312 75.1419 7.95497 74.3633 10.4139C74.3582 10.4289 74.3569 10.4449 74.3593 10.4605C74.3618 10.4761 74.368 10.4909 74.3774 10.5036C74.3867 10.5161 74.3988 10.5261 74.4127 10.5331C74.4266 10.54 74.442 10.5437 74.4575 10.5437H78.3028C78.324 10.5436 78.3446 10.5368 78.3617 10.5244C78.3788 10.5119 78.3915 10.4944 78.3982 10.4743C78.3982 10.4743 79.5785 6.78305 79.6209 6.65271L80.0051 6.64932C80.0051 6.64932 83.4295 6.63183 83.5508 6.63183C83.6411 6.88856 83.9649 7.70896 85.0703 10.5138C85.0775 10.5323 85.0902 10.5481 85.1066 10.5593C85.123 10.5705 85.1424 10.5764 85.1622 10.5764L88.8411 10.5651C88.8567 10.5651 88.8722 10.5613 88.8861 10.5542C88.9 10.547 88.912 10.5366 88.9212 10.5239C88.9326 10.5073 88.9389 10.4877 88.9393 10.4675C88.9399 10.4572 88.9384 10.4468 88.9347 10.4371C88.9347 10.4371 87.8429 6.86147 87.7713 6.62844C89.0504 6.60531 89.6897 6.28482 89.9538 5.531L90.0164 5.33295L90.6856 3.18038C90.7253 3.04937 90.7458 2.91329 90.7465 2.77639C90.7438 2.47426 90.643 2.1812 90.4593 1.94131M86.6332 3.2148L86.4436 3.82361C86.3139 4.23494 86.0058 4.25131 85.428 4.24454H85.2943C85.2943 4.24454 81.155 4.24002 80.3719 4.24002C80.4368 4.04931 80.6134 3.52175 80.6134 3.52175L80.6664 3.35812C80.716 3.19787 80.8396 2.99418 81.3503 2.99418C81.3926 2.99418 85.6582 2.98798 86.0972 2.9987C86.5063 3.01732 86.605 3.10082 86.6287 3.13637C86.6355 3.14483 86.6496 3.16571 86.6287 3.21536" fill="#9CA3AF"/>
<path d="M124.372 1.94075C123.808 1.17959 122.444 0.67742 120.898 0.661621L111.419 0.672906C111.398 0.672791 111.378 0.679415 111.361 0.691806C111.344 0.704196 111.331 0.721699 111.325 0.741743L109.058 7.94651L108.276 10.4139C108.272 10.429 108.271 10.4449 108.273 10.4605C108.276 10.476 108.282 10.4908 108.291 10.5036C108.3 10.5162 108.312 10.5263 108.326 10.5333C108.34 10.5402 108.356 10.5438 108.371 10.5437H112.218C112.239 10.5434 112.259 10.5366 112.276 10.5241C112.293 10.5117 112.306 10.4943 112.312 10.4743C112.312 10.4743 113.494 6.78305 113.534 6.65271L113.915 6.64932C113.915 6.64932 117.342 6.63183 117.464 6.63183C117.555 6.88856 117.878 7.70896 118.984 10.5138C118.991 10.5323 119.004 10.5481 119.021 10.5592C119.037 10.5704 119.057 10.5764 119.077 10.5764L122.754 10.5651C122.769 10.5653 122.785 10.5616 122.799 10.5544C122.813 10.5472 122.825 10.5368 122.834 10.5239C122.846 10.5078 122.853 10.488 122.853 10.4675C122.853 10.4572 122.852 10.4469 122.849 10.4371C122.849 10.4371 121.757 6.86147 121.685 6.62844C122.962 6.60531 123.604 6.28482 123.868 5.531C123.868 5.5231 123.943 5.29402 123.943 5.29402L124.601 3.18038C124.64 3.04962 124.66 2.91395 124.661 2.77752C124.659 2.47474 124.557 2.18099 124.372 1.94131M117.445 6.59177C117.434 6.57485 117.427 6.55543 117.426 6.53535C117.426 6.52912 117.428 6.52302 117.43 6.51729C117.434 6.54399 117.44 6.57017 117.45 6.59515H117.445M120.548 3.22101L120.358 3.82982C120.228 4.24115 119.921 4.25751 119.346 4.25074H119.211L114.29 4.24623C114.354 4.05439 114.535 3.51836 114.535 3.51836L114.584 3.3632C114.635 3.20408 114.759 2.99983 115.268 2.99983C115.311 2.99983 119.577 2.99362 120.014 3.00434C120.425 3.02296 120.521 3.10647 120.548 3.14201C120.553 3.15048 120.567 3.17135 120.548 3.22101" fill="#9CA3AF"/>
<path d="M126.042 2.72493C126.038 2.7317 126.024 2.75766 126.019 2.76499C126.005 2.81126 124.548 7.45382 124.488 7.61745C124.383 7.86699 124.344 8.13929 124.374 8.40836C124.404 8.67743 124.502 8.93429 124.66 9.15443C125.297 10.073 126.878 10.5678 128.04 10.5678L137.109 10.5757C137.128 10.5757 137.145 10.5707 137.161 10.5613C137.176 10.552 137.189 10.5387 137.197 10.5227L138.269 8.42713C138.277 8.4119 138.28 8.39509 138.279 8.37824C138.278 8.36138 138.273 8.34502 138.264 8.33064C138.256 8.31571 138.244 8.30335 138.229 8.2949C138.214 8.28645 138.197 8.28222 138.18 8.28268L133.553 8.30243L128.397 8.28607C128.461 8.08915 128.897 6.74683 128.935 6.63285L136.052 6.64921C136.073 6.64894 136.093 6.64223 136.11 6.63001C136.127 6.61779 136.14 6.60065 136.146 6.58094L136.818 4.46222C136.821 4.4528 136.823 4.44286 136.822 4.43288C136.822 4.41236 136.815 4.39241 136.802 4.37646C136.794 4.36408 136.782 4.35399 136.768 4.34703C136.755 4.34006 136.74 4.33642 136.725 4.3364C136.725 4.3364 129.979 4.31891 129.708 4.31891C129.771 4.14964 129.899 3.79473 129.899 3.79473L129.937 3.68188C130.089 3.20341 130.817 3.1893 131.037 3.19607L139.369 3.21356C139.386 3.21383 139.404 3.20925 139.419 3.2003C139.435 3.19135 139.447 3.17839 139.456 3.16278L140.734 0.843762C140.742 0.828834 140.747 0.812036 140.747 0.794955C140.747 0.777875 140.742 0.761077 140.734 0.746149C140.725 0.731386 140.713 0.719127 140.698 0.710536C140.683 0.701945 140.666 0.697306 140.649 0.69706L130.006 0.681826C128.742 0.618067 126.949 0.760255 126.043 2.72493" fill="#9CA3AF"/>
<path d="M149.158 10.5534L138.614 10.5777C138.597 10.5776 138.58 10.5731 138.566 10.5647C138.551 10.5563 138.538 10.5443 138.53 10.5297C138.521 10.5152 138.516 10.4988 138.516 10.4819C138.515 10.4651 138.519 10.4483 138.526 10.4333L139.598 8.33767C139.615 8.30382 139.648 8.28125 139.598 8.28125L149.19 8.29761" fill="#9CA3AF"/>
<path d="M149.132 10.5533C150.023 10.5425 150.903 10.3525 151.719 9.9947C152.762 9.39548 152.903 9.13198 153.135 8.40524L153.925 5.91413C153.987 5.75062 154.011 5.57518 153.996 5.40102C153.98 5.22686 153.925 5.05851 153.835 4.90866C153.562 4.50128 152.981 4.29646 152.105 4.29646H144.187C144.244 4.10518 144.435 3.47888 144.435 3.47888C144.488 3.29418 144.601 3.13297 144.758 3.02216C144.915 2.91136 145.105 2.85767 145.296 2.87006C145.917 2.85144 149.055 2.86442 149.086 2.86442L154.345 2.87232C154.364 2.87237 154.382 2.86707 154.397 2.85706C154.413 2.84706 154.425 2.83276 154.433 2.8159L155.505 0.720313C155.513 0.705204 155.516 0.688329 155.516 0.671389C155.515 0.65445 155.509 0.638045 155.5 0.623828C155.492 0.60993 155.48 0.59844 155.465 0.590442C155.451 0.582445 155.435 0.578206 155.419 0.578125L144.806 0.599002C144.675 0.596181 141.514 0.561198 140.837 2.69797L140.174 4.78565C140.142 4.88721 139.87 5.79451 140.298 6.11669C140.775 6.43184 141.346 6.57255 141.915 6.51504H149.74C149.67 6.73735 149.176 8.29691 149.176 8.29691" fill="#9CA3AF"/>
</g>
</g>
<defs>
<clipPath id="clip0_1132_16368">
<rect width="158.258" height="10" fill="white" transform="translate(0 0.578125)"/>
</clipPath>
</defs>
</svg>
