<svg width="116" height="13" viewBox="0 0 116 13" fill="none" xmlns="http://www.w3.org/2000/svg">
<g clip-path="url(#clip0_1134_7443)">
<mask id="mask0_1134_7443" style="mask-type:luminance" maskUnits="userSpaceOnUse" x="0" y="0" width="116" height="13">
<path d="M115.305 0.898438H0V12.8984H115.305V0.898438Z" fill="white"/>
</mask>
<g mask="url(#mask0_1134_7443)">
<path d="M103.727 8.01498L102.749 10.504H104.617L103.638 12.7328H93.4966L94.3863 10.504H96.4344L99.6372 3.29775H97.5018L98.2114 1.07617H111.911C114.313 1.07617 115.025 1.43278 115.291 2.32189C115.38 3.38931 115.025 4.01217 114.668 4.90188C114.135 6.1476 112.89 8.10473 110.31 8.01558L103.727 8.01498ZM107.197 5.791C108.175 5.791 108.353 5.34584 108.442 5.16814C108.574 4.83447 108.722 4.50776 108.887 4.18927C108.977 3.92302 108.977 3.29955 108.175 3.29955H105.862L104.795 5.791H107.197Z" fill="#9CA3AF"/>
<path d="M0 12.7328L0.978867 10.504H3.02696L6.2274 3.30076H4.36002L5.33768 1.07617H19.749C20.1541 1.13879 20.54 1.29114 20.8787 1.5221C21.2173 1.75305 21.5 2.05677 21.7061 2.41104C22.7736 4.27842 21.3501 6.1458 20.7279 7.83728C19.749 9.88537 18.2364 12.2852 15.7462 12.5527L14.7673 12.7334L0 12.7328ZM11.7428 10.504C12.365 10.504 12.5433 10.3233 13.0777 9.88115C13.9668 8.81374 15.4787 5.16573 15.5679 4.09831C15.657 3.65315 15.2125 3.29775 14.6788 3.29775H12.2765L9.07424 10.504H11.7428Z" fill="#9CA3AF"/>
<path d="M83.4446 12.7302C82.0212 12.7302 81.0429 12.7302 79.7098 12.6405C78.5539 12.5513 77.3082 12.1068 76.863 11.0387C76.2401 9.34846 77.0437 8.28104 77.7527 6.76907C79.087 4.10053 79.7098 2.23255 81.8453 1.52054C83.6247 0.808525 85.7607 0.98683 87.8052 0.897678C89.707 0.851226 91.6098 0.940403 93.4989 1.16453C94.4772 1.34525 95.6343 1.69824 95.9897 2.85481C96.2566 4.18968 95.3669 5.6125 95.1892 6.14621C94.566 7.59964 93.8221 8.99824 92.9652 10.3273C92.4749 10.9619 91.8577 11.4874 91.1531 11.8703C90.4485 12.2532 89.6718 12.4851 88.8726 12.5513C87.1571 12.7006 85.435 12.7609 83.7133 12.732L83.4446 12.7302ZM87.9811 8.72921C88.604 7.39434 89.2268 6.32753 89.7599 4.9035C89.9407 4.36979 90.3834 2.94577 87.8028 2.85541C85.312 2.85541 84.6891 4.10113 84.4223 4.72279C84.0669 5.70105 82.9097 7.74673 82.7356 8.5485C82.2013 10.4159 83.7139 10.5056 84.4223 10.5056C84.4223 10.5056 87.0908 10.7725 87.9805 8.7268" fill="#9CA3AF"/>
<path d="M39.498 3.30016C39.498 3.30016 37.6307 8.19268 36.2958 10.3281C35.2284 12.1955 33.0929 12.6413 31.0466 12.819C28.9114 12.9821 26.7648 12.9216 24.6421 12.6382C24.1713 12.5166 23.7416 12.2713 23.3975 11.9277C23.0534 11.5841 22.8074 11.1548 22.685 10.6841C22.5687 10.0391 22.6955 9.37377 23.041 8.81675C23.8416 7.03792 25.3542 3.30136 25.3542 3.30136H23.3964L24.2861 1.07617H34.5164L33.6272 3.30016H31.6695L29.2678 8.81675C29.1994 9.02968 29.1881 9.25683 29.2349 9.47552C29.2817 9.69421 29.3851 9.8968 29.5347 10.0631C30.2461 10.6847 31.4918 10.5962 32.3815 10.4179C33.1925 10.1082 33.8585 9.5066 34.2489 8.73121L36.562 3.30437H34.6947L35.6729 1.07617H42.4334L41.4552 3.30016H39.498Z" fill="#9CA3AF"/>
<path d="M59.4253 3.30004L55.3322 12.7327H50.53L46.7953 5.61318L44.6574 10.5039H46.5248L45.6351 12.6387L38.5192 12.7327L39.4974 10.5039H41.722L44.7472 3.30004H42.79L43.5906 1.07666H50.8848L54.3545 8.01547L56.4026 3.30004H54.5352L55.4219 1.07666H62.2722L61.4716 3.30065L59.4253 3.30004Z" fill="#9CA3AF"/>
<path d="M71.0784 3.30004L68.0544 10.5039H71.3483L74.3728 7.12334H76.4209L73.9301 12.7255H58.5356L59.6019 10.5039H61.6499L64.7636 3.29763H62.8059L63.6065 1.07666H74.0138L73.1241 3.30064L71.0784 3.30004Z" fill="#9CA3AF"/>
</g>
</g>
<defs>
<clipPath id="clip0_1134_7443">
<rect width="115.305" height="12" fill="white" transform="translate(0 0.898438)"/>
</clipPath>
</defs>
</svg>
