<svg width="105" height="13" viewBox="0 0 105 13" fill="none" xmlns="http://www.w3.org/2000/svg">
<g clip-path="url(#clip0_1134_7414)">
<mask id="mask0_1134_7414" style="mask-type:luminance" maskUnits="userSpaceOnUse" x="0" y="0" width="105" height="13">
<path d="M104.825 0.0683594H0V12.0684H104.825V0.0683594Z" fill="white"/>
</mask>
<g mask="url(#mask0_1134_7414)">
<path fill-rule="evenodd" clip-rule="evenodd" d="M103.269 11.5936H98.2405L99.7993 3.35855H93.1554L91.37 11.5955H86.1605L88.4771 0.282227H100.376C104.354 0.282227 105.235 1.57064 104.67 4.44069L103.269 11.5936Z" fill="#9CA3AF"/>
<path fill-rule="evenodd" clip-rule="evenodd" d="M83.7068 11.5938H68.4109L70.3321 2.96206C70.671 1.41407 72.6804 0.283691 74.276 0.283691H86.9202L86.1821 3.46918H76.4079C75.5156 3.46918 75.1766 3.67228 74.9958 4.58749H84.3517L83.8096 7.33314H74.488L74.2278 8.4521H86.0926L83.7068 11.5938Z" fill="#9CA3AF"/>
<path fill-rule="evenodd" clip-rule="evenodd" d="M50.6003 11.5936H55.5046L56.7587 6.20384L62.1935 11.5936H68.3068L62.6581 6.21463L71.0867 0.282227H63.7878L56.951 5.38954L58.1353 0.282227H53.2083L50.6003 11.5936Z" fill="#9CA3AF"/>
<path fill-rule="evenodd" clip-rule="evenodd" d="M48.8258 11.5936H35.0531L37.6509 0.282227H43.007L41.1309 8.38462H51.176L48.8258 11.5936Z" fill="#9CA3AF"/>
<path fill-rule="evenodd" clip-rule="evenodd" d="M35.8457 0.282812L33.2099 11.5942H28.2156L30.1704 2.45471L23.6274 8.45312H28.6218L26.4524 11.5942H14.1243L24.351 2.05739C25.7295 0.780406 27.2775 0.280273 29.7071 0.280273L35.8457 0.282812Z" fill="#9CA3AF"/>
<path fill-rule="evenodd" clip-rule="evenodd" d="M14.9494 9.86523L14.3503 10.385C14.0678 10.2156 13.774 10.0347 13.4801 9.86523H14.9494Z" fill="#9CA3AF"/>
<path fill-rule="evenodd" clip-rule="evenodd" d="M15.5034 9.35645L15.1531 9.67379H13.1411C12.9507 9.57224 12.7686 9.45926 12.5769 9.35645H15.5034Z" fill="#9CA3AF"/>
<path fill-rule="evenodd" clip-rule="evenodd" d="M16.0563 8.85889L15.7174 9.17623H12.2038C12 9.06389 11.7855 8.96171 11.5818 8.85889H16.0563Z" fill="#9CA3AF"/>
<path fill-rule="evenodd" clip-rule="evenodd" d="M16.6218 8.35107L16.2715 8.66842H11.1756C10.9382 8.56687 10.7123 8.45389 10.4774 8.35107H16.6218Z" fill="#9CA3AF"/>
<path fill-rule="evenodd" clip-rule="evenodd" d="M9.24292 7.85352H17.1765L16.8261 8.17086H10.0223C9.76209 8.05788 9.50251 7.95633 9.24292 7.85352Z" fill="#9CA3AF"/>
<path fill-rule="evenodd" clip-rule="evenodd" d="M7.53689 12.0684H2.22584L3.7402 6.20386C2.50828 5.90747 1.25414 5.66184 0 5.42447H3.9433L4.36156 3.78571C5.02861 1.1981 6.84762 0.0683594 10.452 0.0683594H24.9159L21.1985 3.78571H11.3336C10.3727 3.78571 9.52536 3.88726 9.34448 4.65587L9.15407 5.42447H19.8657L19.0628 6.16134H3.70656C3.96615 6.21783 4.2378 6.28828 4.50817 6.34223H18.8502L18.4998 6.65957H5.53636C5.76294 6.72748 5.98826 6.78651 6.21421 6.84998H18.2942L17.9438 7.16732H7.24303C7.44677 7.2238 7.63844 7.29425 7.83075 7.3482H17.7318L17.3929 7.66555H8.72312L8.62157 7.63127L7.53689 12.0684Z" fill="#9CA3AF"/>
</g>
</g>
<defs>
<clipPath id="clip0_1134_7414">
<rect width="104.825" height="12" fill="white" transform="translate(0 0.0683594)"/>
</clipPath>
</defs>
</svg>
