<svg width="137" height="13" viewBox="0 0 137 13" fill="none" xmlns="http://www.w3.org/2000/svg">
<g clip-path="url(#clip0_1132_16332)">
<mask id="mask0_1132_16332" style="mask-type:luminance" maskUnits="userSpaceOnUse" x="0" y="0" width="137" height="13">
<path d="M136.604 0.748535H0V12.7485H136.604V0.748535Z" fill="white"/>
</mask>
<g mask="url(#mask0_1132_16332)">
<path fill-rule="evenodd" clip-rule="evenodd" d="M6.72001 7.84474L7.51681 5.21374L14.2692 5.11954L10.7496 12.3099C7.51261 13.0629 0.0708066 13.3965 6.59062e-06 8.55514C-0.0485934 5.18854 3.48961 0.921335 7.45801 0.858335L14.2662 0.748535L13.047 3.94474L6.97801 4.01854C6.32581 4.02574 4.24501 5.24494 4.75801 7.84234C4.85521 8.33494 5.32861 9.74734 7.59061 9.44074L8.13061 7.93234L6.72001 7.84474Z" fill="#9CA3AF"/>
<path fill-rule="evenodd" clip-rule="evenodd" d="M15.1098 4.0383L16.095 0.774902H27.3486L26.3196 4.0383H20.9712L20.5962 5.3547H24.957L23.832 8.1279H19.5642L19.236 9.2553H24.7224L23.409 12.3105H13.14L16.1886 4.0383H15.1098Z" fill="#9CA3AF"/>
<path fill-rule="evenodd" clip-rule="evenodd" d="M40.8996 4.0383L41.8842 0.774902H53.1396L52.1076 4.0383H46.761L46.386 5.3547H50.7468L49.6212 8.1279H45.354L45.0258 9.2553H50.5122L49.1988 12.3105H38.9298L41.9796 4.0383H40.8996Z" fill="#9CA3AF"/>
<path fill-rule="evenodd" clip-rule="evenodd" d="M124.366 4.0383L125.35 0.774902H136.604L135.572 4.0383H130.226L129.851 5.3547H134.212L133.087 8.1279H128.819L128.491 9.2553H133.978L132.664 12.3105H122.395L125.444 4.0383H124.366Z" fill="#9CA3AF"/>
<path fill-rule="evenodd" clip-rule="evenodd" d="M27.2076 4.0383L28.1946 0.774902H33.822L35.3196 5.5431L37.0074 0.774902H41.0406L37.0548 12.3099H32.835L31.0062 7.3749L29.0832 12.3099H25.2378L28.2864 4.0383H27.2076Z" fill="#9CA3AF"/>
<path fill-rule="evenodd" clip-rule="evenodd" d="M52.9032 4.03841L53.8878 0.774414H62.703C67.7814 0.774414 68.538 5.76581 62.9466 8.13881L64.251 12.31H59.3274L58.7436 8.41841L57.618 8.29001L55.8576 12.31H50.934L53.982 4.03781L52.9032 4.03841ZM58.2486 6.15341C60.6222 6.28661 60.9648 5.65781 61.3164 4.91801C61.6764 4.16381 61.1196 3.94121 59.046 4.03841L58.2486 6.15341Z" fill="#9CA3AF"/>
<path fill-rule="evenodd" clip-rule="evenodd" d="M69.3864 4.03841L71.3784 0.774414H78.5526L78.8814 12.31H74.052L74.0178 10.3354L70.2534 10.2898L68.9394 12.31H64.767L70.467 4.03781L69.3864 4.03841ZM73.9692 7.59821L73.9158 4.60241L71.8944 7.56341L73.9692 7.59821Z" fill="#9CA3AF"/>
<path fill-rule="evenodd" clip-rule="evenodd" d="M81.6954 4.0383L82.68 0.774902H88.7754L87.1812 5.3547L85.821 9.2547H90.6036L89.2902 12.3099H79.7256L82.7742 4.0377L81.6954 4.0383Z" fill="#9CA3AF"/>
<path fill-rule="evenodd" clip-rule="evenodd" d="M110.391 4.03841L111.376 0.774414H120.191C125.269 0.774414 126.026 5.76581 120.434 8.13881L121.739 12.31H116.815L116.231 8.41841L115.106 8.29001L113.345 12.31H108.422L111.471 4.03841H110.391ZM115.736 6.15341C118.11 6.28661 118.453 5.65781 118.804 4.91801C119.164 4.16381 118.608 3.94121 116.534 4.03841L115.736 6.15341Z" fill="#9CA3AF"/>
<path fill-rule="evenodd" clip-rule="evenodd" d="M92.3861 4.0707L93.6053 0.774902H104.672L103.546 4.0707H100.451L97.6385 12.3105H92.3867L95.7623 4.0707H92.3861Z" fill="#9CA3AF"/>
<path fill-rule="evenodd" clip-rule="evenodd" d="M105.89 0.774902L101.951 12.3099H106.734L110.779 0.774902H105.89Z" fill="#9CA3AF"/>
</g>
</g>
<defs>
<clipPath id="clip0_1132_16332">
<rect width="136.604" height="12" fill="white" transform="translate(0 0.748535)"/>
</clipPath>
</defs>
</svg>
