<svg width="119" height="13" viewBox="0 0 119 13" fill="none" xmlns="http://www.w3.org/2000/svg">
<path fill-rule="evenodd" clip-rule="evenodd" d="M114.161 1.15251L111.249 9.0381C111.295 8.23599 111.455 5.09546 111.547 3.30724C111.593 2.57385 111.433 2.0008 111.066 1.61086C110.63 1.15251 110.057 1.15251 110.057 1.15251H103.593L99.3753 12.6603H104.074L107.077 4.52234L106.711 12.6603H114.596L118.837 1.15251H114.161ZM96.0507 12.6603H90.4797L94.7215 1.15251H100.292L96.0507 12.6603ZM89.7697 8.83179H84.3134L87.1334 1.15251H81.7233L77.4825 12.6603H88.3715L89.7697 8.83179ZM77.5056 4.17851H71.1556L70.6972 5.46202H76.7488L75.7173 8.28172H69.6654L69.1841 9.56555H75.6716L74.5253 12.6603H62.7881L67.0293 1.17557H78.6286L77.5056 4.17851ZM59.6478 12.6603L63.8888 1.15251H58.5933L57.0573 5.30183H54.2607L55.7966 1.15251H50.4783L46.2603 12.6603H51.5558L52.9999 8.76313H55.7966L54.3525 12.6603H59.6478ZM45.9395 5.37056C45.458 4.26998 44.2201 4.2473 43.7157 4.2473C42.4778 4.22425 41.4695 4.54539 40.7126 4.88921C39.0162 5.66865 37.5265 8.16726 39.9332 9.12988C41.2628 9.68007 42.9823 9.24485 44.7474 8.96937L43.3948 12.454C43.1656 12.4768 41.217 12.8667 39.1998 12.9124C35.6007 13.0041 32.4371 11.5601 32.4144 8.94669C32.3457 4.43049 36.9303 1.95506 40.3 1.26703C41.8132 0.969257 44.7243 0.625118 47.6128 1.33576L45.9395 5.37056ZM28.3109 12.6603L32.529 1.15251H26.9583L22.7176 12.6603H28.3109ZM19.531 12.6603H14.465L17.4681 4.49934L11.9661 12.6603H7.47316L8.11508 4.33902L5.04321 12.6603H0L4.24117 1.15251H10.7054C12.1497 1.15251 12.2185 2.73418 12.1725 3.33036C12.1036 4.10979 11.8517 7.3421 11.8517 7.3421L15.9091 1.15251H23.772L19.531 12.6603Z" fill="#9CA3AF"/>
</svg>
