<svg width="85" height="19" viewBox="0 0 85 19" fill="none" xmlns="http://www.w3.org/2000/svg">
<g clip-path="url(#clip0_1138_51555)">
<path d="M17.2102 8.82715H12.0049V18.2383H17.2102V8.82715Z" fill="#9CA3AF"/>
<path d="M83.6874 8.82715H78.4806V18.2383H83.6874V8.82715Z" fill="#9CA3AF"/>
<mask id="mask0_1138_51555" style="mask-type:luminance" maskUnits="userSpaceOnUse" x="0" y="0" width="85" height="19">
<path d="M84.7042 0.238281H0V18.2383H84.7042V0.238281Z" fill="white"/>
</mask>
<g mask="url(#mask0_1138_51555)">
<path fill-rule="evenodd" clip-rule="evenodd" d="M81.3652 0.238101H0V18.1951H9.01149V6.91163H81.3652C82.2508 6.91163 83.1002 6.55981 83.7264 5.93356C84.3527 5.3073 84.7045 4.45792 84.7045 3.57227C84.7045 2.68662 84.3527 1.83724 83.7264 1.21099C83.1002 0.584735 82.2508 0.23291 81.3652 0.23291M71.3697 4.63967H9.00927V2.50933L71.3697 2.51526C71.5091 2.51526 71.6472 2.54272 71.7761 2.59609C71.9049 2.64945 72.0219 2.72766 72.1205 2.82626C72.2191 2.92486 72.2973 3.04192 72.3507 3.17075C72.4041 3.29957 72.4315 3.43765 72.4315 3.57709C72.4315 3.71653 72.4041 3.85461 72.3507 3.98344C72.2973 4.11226 72.2191 4.22932 72.1205 4.32792C72.0219 4.42652 71.9049 4.50473 71.7761 4.5581C71.6472 4.61146 71.5091 4.63967 71.3697 4.63967Z" fill="#9CA3AF"/>
<path fill-rule="evenodd" clip-rule="evenodd" d="M33.5284 14.859C34.0581 14.6121 34.5044 14.2162 34.8128 13.7198C35.1212 13.2233 35.2783 12.6478 35.265 12.0636C35.265 10.3685 33.9303 8.82617 31.6636 8.82617H20.9503V18.2381H26.1564V15.1979H27.8619L29.4309 18.2381H35.2717L33.5284 14.859ZM29.1269 12.9208H26.1564V10.9254L29.1261 10.9357C29.389 10.9357 29.641 11.0402 29.8269 11.226C30.0127 11.4119 30.1172 11.6639 30.1172 11.9268C30.1172 12.1896 30.0127 12.4417 29.8269 12.6275C29.641 12.8134 29.389 12.9178 29.1261 12.9178" fill="#9CA3AF"/>
<path fill-rule="evenodd" clip-rule="evenodd" d="M38.5321 18.2381H50.0128V16.1352H43.7389V14.7508H50.0135V12.4825H43.7389V11.0959H50.0135V8.82617H38.5321V18.2381Z" fill="#9CA3AF"/>
<path fill-rule="evenodd" clip-rule="evenodd" d="M58.7686 8.82715H53.5596V18.2391H64.0385V16.1354H58.7657L58.7686 8.82715Z" fill="#9CA3AF"/>
<path fill-rule="evenodd" clip-rule="evenodd" d="M71.0381 8.82715H65.832V18.2391H76.3117V16.1354H71.0389L71.0381 8.82715Z" fill="#9CA3AF"/>
</g>
</g>
<defs>
<clipPath id="clip0_1138_51555">
<rect width="84.7042" height="18" fill="white" transform="translate(0 0.238281)"/>
</clipPath>
</defs>
</svg>
