<svg width="9" height="22" viewBox="0 0 9 22" fill="none" xmlns="http://www.w3.org/2000/svg">
<path d="M1.03268 3.26536C1.03268 1.84783 2.18182 0.698698 3.59935 0.698698H5.79935C7.21688 0.698698 8.36602 1.84783 8.36602 3.26536V18.6654C8.36602 20.0829 7.21688 21.232 5.79935 21.232H3.59935C2.18182 21.232 1.03268 20.0829 1.03268 18.6654V3.26536Z" fill="#C7D2FE"/>
<path d="M1.03268 3.26536C1.03268 1.84783 2.18182 0.698698 3.59935 0.698698H5.79935C7.21688 0.698698 8.36602 1.84783 8.36602 3.26536V18.6654C8.36602 20.0829 7.21688 21.232 5.79935 21.232H3.59935C2.18182 21.232 1.03268 20.0829 1.03268 18.6654V3.26536Z" stroke="#4F46E5" stroke-width="0.733333"/>
</svg>
