<svg width="9" height="22" viewBox="0 0 9 22" fill="none" xmlns="http://www.w3.org/2000/svg">
<path d="M0.899381 3.06517C0.899381 1.64764 2.04852 0.498503 3.46605 0.498503H5.66605C7.08358 0.498503 8.23271 1.64764 8.23271 3.06517V18.4652C8.23271 19.8827 7.08358 21.0318 5.66605 21.0318H3.46605C2.04852 21.0318 0.899381 19.8827 0.899381 18.4652V3.06517Z" fill="#E5E7EB"/>
<path d="M0.899381 3.06517C0.899381 1.64764 2.04852 0.498503 3.46605 0.498503H5.66605C7.08358 0.498503 8.23271 1.64764 8.23271 3.06517V18.4652C8.23271 19.8827 7.08358 21.0318 5.66605 21.0318H3.46605C2.04852 21.0318 0.899381 19.8827 0.899381 18.4652V3.06517Z" stroke="#374151" stroke-width="0.733333"/>
</svg>
